<svg width="760" height="220" viewBox="0 0 760 220" fill="none" xmlns="http://www.w3.org/2000/svg">
  <rect x="18" y="18" width="184" height="184" rx="44" fill="#FFF7EC"/>
  <rect x="18.75" y="18.75" width="182.5" height="182.5" rx="43.25" stroke="#EDCFAE" stroke-width="1.5"/>
  <circle cx="110" cy="110" r="56" fill="#EE6A28"/>
  <path d="M86 141L110 84L134 141" stroke="#FFF7EC" stroke-width="14" stroke-linecap="round" stroke-linejoin="round"/>
  <path d="M95 119H125" stroke="#184C44" stroke-width="12" stroke-linecap="round"/>
  <path d="M148 81C163 86 173 99 173 116C173 131 165 144 151 151" stroke="#184C44" stroke-width="9" stroke-linecap="round"/>
  <path d="M59 128C50 114 49 96 55 81C62 66 74 55 90 49" stroke="#F2B44D" stroke-width="8" stroke-linecap="round"/>
  <circle cx="167" cy="74" r="12" fill="#F2B44D"/>
  <path d="M162 74H172" stroke="#FFF7EC" stroke-width="4" stroke-linecap="round"/>
  <path d="M167 69V79" stroke="#FFF7EC" stroke-width="4" stroke-linecap="round"/>

  <text x="238" y="102" fill="#20160F" font-family="Georgia, 'Times New Roman', serif" font-size="64" font-weight="700" letter-spacing="-0.02em">AkariOps</text>
  <text x="242" y="144" fill="#5F5144" font-family="Arial, Helvetica, sans-serif" font-size="24" font-weight="600" letter-spacing="0.08em">RETAIL OPERATIONS AI GUIDE</text>
</svg>
